# xmcd
#
# Track frame offsets:
#	150
#	35256
#	73065
#	97114
#	118736
#	144895
#
# Disc length: 2391 seconds
#
# Revision: 2
# Processed by: cddbd v1.5.2PL0 Copyright (c) Steve Scherf et al.
# Submitted via: audiograbber 1.83.01
#
DISCID=50095506
DTITLE=John Grant - Pale Green Ghosts (Remixes)
DYEAR=2013
DGENRE=Alternative
TTITLE0=Black Belt (Hercules and Love Affair Rmx)
TTITLE1=Black Belt (Gluteus Maximus Vocal Rmx)
TTITLE2=Pale Green Ghosts (Nivolt Rmx)
TTITLE3=Pale Green Ghosts (No Ceremony///Rmx)
TTITLE4=Why Don't You Love Me Anymore (Nivolt Rmx)
TTITLE5=Why Don't You Love Me Anymore (Bon Homme Rmx)
EXTD=
EXTT0=
EXTT1=
EXTT2=
EXTT3=
EXTT4=
EXTT5=
PLAYORDER=
